<svg width="20" height="20" viewBox="0 0 20 20" fill="none" xmlns="http://www.w3.org/2000/svg">
<path fill-rule="evenodd" clip-rule="evenodd" d="M1.59741 4.72333C1.59741 2.99732 2.9964 1.59833 4.72241 1.59833H13.0557C14.7818 1.59833 16.1805 2.99731 16.1816 4.72295V8.60999C16.1816 10.336 14.7826 11.735 13.0566 11.735H9.78568L6.23552 14.7849C6.05055 14.9438 5.79005 14.9806 5.56829 14.8792C5.34653 14.7778 5.20401 14.5566 5.20325 14.3128L5.19519 11.735H4.72241C2.9964 11.735 1.59741 10.336 1.59741 8.60999V4.72333ZM4.72241 2.84833C3.68676 2.84833 2.84741 3.68767 2.84741 4.72333V8.60999C2.84741 9.64565 3.68676 10.485 4.72241 10.485H5.81824C6.16266 10.485 6.44217 10.7636 6.44324 11.108L6.44901 12.9536L9.1468 10.6359C9.26015 10.5385 9.40464 10.485 9.55408 10.485H13.0566C14.0922 10.485 14.9316 9.64565 14.9316 8.60999V4.72371C14.931 3.68768 14.0913 2.84833 13.0557 2.84833H4.72241ZM6.58181 6.13487C6.87567 6.31596 6.96709 6.70098 6.78601 6.99484L6.7845 6.99729C6.60341 7.29115 6.21839 7.38257 5.92452 7.20148C5.63066 7.0204 5.53924 6.63537 5.72033 6.34151L5.72184 6.33906C5.90293 6.0452 6.28795 5.95378 6.58181 6.13487ZM9.21527 6.13487C9.50914 6.31596 9.60056 6.70098 9.41947 6.99484L9.41796 6.99729C9.23687 7.29115 8.85185 7.38257 8.55799 7.20148C8.26413 7.0204 8.1727 6.63537 8.35379 6.34151L8.3553 6.33906C8.53639 6.0452 8.92141 5.95378 9.21527 6.13487ZM11.8487 6.13487C12.1426 6.31596 12.234 6.70098 12.0529 6.99484L12.0514 6.99729C11.8703 7.29115 11.4853 7.38257 11.1915 7.20148C10.8976 7.0204 10.8062 6.63537 10.9873 6.34151L10.9888 6.33906C11.1699 6.0452 11.5549 5.95378 11.8487 6.13487ZM17.7774 9.88416C18.1226 9.88416 18.4024 10.164 18.4024 10.5092V12.0758C18.4024 13.8018 17.0034 15.2008 15.2774 15.2008H14.8046L14.7966 17.7786C14.7958 18.0225 14.6533 18.2436 14.4315 18.345C14.2098 18.4465 13.9493 18.4096 13.7643 18.2507L10.2141 15.2008H8.88825C8.54307 15.2008 8.26325 14.921 8.26325 14.5758C8.26325 14.2306 8.54307 13.9508 8.88825 13.9508H10.4457C10.5952 13.9508 10.7397 14.0044 10.853 14.1017L13.5508 16.4194L13.5566 14.5739C13.5577 14.2295 13.8372 13.9508 14.1816 13.9508H15.2774C16.3131 13.9508 17.1524 13.1115 17.1524 12.0758V10.5092C17.1524 10.164 17.4322 9.88416 17.7774 9.88416Z" fill="#A7A5A5"/>
</svg>
